<svg width="152" height="40" viewBox="0 0 152 40" fill="none" xmlns="http://www.w3.org/2000/svg">
<rect x="1.27258" y="0.5" width="150.227" height="39" rx="13.5" fill="url(#paint0_linear_1_20)" stroke="black"/>
<g filter="url(#filter0_d_1_20)">
<path d="M33.4108 21.3848V19.7051L39.4753 19.6953V25.0078C38.5443 25.75 37.584 26.3099 36.5944 26.6875C35.6048 27.0586 34.5892 27.2441 33.5475 27.2441C32.1413 27.2441 30.862 26.9447 29.7097 26.3457C28.5638 25.7402 27.6979 24.8678 27.112 23.7285C26.5261 22.5892 26.2331 21.3164 26.2331 19.9102C26.2331 18.5169 26.5228 17.2181 27.1022 16.0137C27.6882 14.8027 28.528 13.9043 29.6218 13.3184C30.7155 12.7324 31.9753 12.4395 33.4011 12.4395C34.4362 12.4395 35.3705 12.6087 36.2038 12.9473C37.0436 13.2793 37.7012 13.7448 38.1765 14.3438C38.6517 14.9427 39.013 15.724 39.2604 16.6875L37.5515 17.1562C37.3366 16.4271 37.0697 15.8542 36.7507 15.4375C36.4317 15.0208 35.9759 14.6888 35.3835 14.4414C34.791 14.1875 34.1335 14.0605 33.4108 14.0605C32.5449 14.0605 31.7962 14.194 31.1647 14.4609C30.5332 14.7214 30.0222 15.0664 29.6315 15.4961C29.2474 15.9258 28.9479 16.3978 28.7331 16.9121C28.3685 17.7975 28.1862 18.7578 28.1862 19.793C28.1862 21.069 28.4043 22.1367 28.8405 22.9961C29.2832 23.8555 29.9245 24.4935 30.7643 24.9102C31.6042 25.3268 32.4961 25.5352 33.4401 25.5352C34.2604 25.5352 35.0612 25.3789 35.8425 25.0664C36.6237 24.7474 37.2162 24.4089 37.6198 24.0508V21.3848H33.4108ZM49.153 23.6602L50.9694 23.8848C50.683 24.946 50.1524 25.7695 49.3776 26.3555C48.6029 26.9414 47.6133 27.2344 46.4089 27.2344C44.8919 27.2344 43.6875 26.7689 42.7956 25.8379C41.9102 24.9004 41.4675 23.5885 41.4675 21.9023C41.4675 20.1576 41.9167 18.8034 42.8151 17.8398C43.7136 16.8763 44.8789 16.3945 46.3112 16.3945C47.6979 16.3945 48.8307 16.8665 49.7097 17.8105C50.5886 18.7546 51.028 20.0827 51.028 21.7949C51.028 21.8991 51.0248 22.0553 51.0182 22.2637H43.2839C43.349 23.403 43.6712 24.2754 44.2507 24.8809C44.8301 25.4863 45.5528 25.7891 46.4186 25.7891C47.0632 25.7891 47.6133 25.6198 48.069 25.2812C48.5248 24.9427 48.8861 24.4023 49.153 23.6602ZM43.3815 20.8184H49.1725C49.0944 19.946 48.8731 19.2917 48.5085 18.8555C47.9486 18.1784 47.2227 17.8398 46.3307 17.8398C45.5235 17.8398 44.8431 18.11 44.2897 18.6504C43.7429 19.1908 43.4401 19.9134 43.3815 20.8184ZM57.0241 25.4277L57.278 26.9805C56.7832 27.0846 56.3405 27.1367 55.9499 27.1367C55.3119 27.1367 54.8171 27.0358 54.4655 26.834C54.114 26.6322 53.8666 26.3685 53.7233 26.043C53.5801 25.7109 53.5085 25.0176 53.5085 23.9629V17.9961H52.2194V16.6289H53.5085V14.0605L55.2565 13.0059V16.6289H57.0241V17.9961H55.2565V24.0605C55.2565 24.5618 55.2858 24.8841 55.3444 25.0273C55.4095 25.1706 55.5104 25.2845 55.6472 25.3691C55.7904 25.4538 55.9922 25.4961 56.2526 25.4961C56.4479 25.4961 56.7051 25.4733 57.0241 25.4277ZM63.6159 23.9043L65.3542 23.6309C65.4518 24.3275 65.722 24.8613 66.1647 25.2324C66.614 25.6035 67.239 25.7891 68.0397 25.7891C68.847 25.7891 69.446 25.6263 69.8366 25.3008C70.2272 24.9688 70.4225 24.5814 70.4225 24.1387C70.4225 23.7415 70.25 23.429 69.905 23.2012C69.6641 23.0449 69.0651 22.8464 68.1081 22.6055C66.819 22.2799 65.9238 22 65.4225 21.7656C64.9278 21.5247 64.5502 21.196 64.2897 20.7793C64.0358 20.3561 63.9089 19.8906 63.9089 19.3828C63.9089 18.9206 64.013 18.4941 64.2214 18.1035C64.4362 17.7064 64.7259 17.3776 65.0905 17.1172C65.364 16.9154 65.735 16.7461 66.2038 16.6094C66.6791 16.4661 67.1869 16.3945 67.7272 16.3945C68.541 16.3945 69.2539 16.5117 69.8659 16.7461C70.4844 16.9805 70.9401 17.2995 71.2331 17.7031C71.5261 18.1003 71.7279 18.6341 71.8386 19.3047L70.1198 19.5391C70.0417 19.0052 69.8138 18.5885 69.4362 18.2891C69.0651 17.9896 68.5378 17.8398 67.8542 17.8398C67.0469 17.8398 66.4707 17.9733 66.1257 18.2402C65.7806 18.5072 65.6081 18.8197 65.6081 19.1777C65.6081 19.4056 65.6797 19.6107 65.8229 19.793C65.9662 19.9818 66.1908 20.138 66.4968 20.2617C66.6725 20.3268 67.1901 20.4766 68.0495 20.7109C69.293 21.043 70.1589 21.3164 70.6472 21.5312C71.1419 21.7396 71.5293 22.0456 71.8093 22.4492C72.0892 22.8529 72.2292 23.3542 72.2292 23.9531C72.2292 24.5391 72.0567 25.0924 71.7116 25.6133C71.3731 26.1276 70.8815 26.528 70.237 26.8145C69.5925 27.0944 68.8633 27.2344 68.0495 27.2344C66.7018 27.2344 65.6732 26.9544 64.9636 26.3945C64.2604 25.8346 63.8112 25.0046 63.6159 23.9043ZM78.1569 25.4277L78.4108 26.9805C77.916 27.0846 77.4733 27.1367 77.0827 27.1367C76.4447 27.1367 75.9499 27.0358 75.5983 26.834C75.2468 26.6322 74.9994 26.3685 74.8561 26.043C74.7129 25.7109 74.6413 25.0176 74.6413 23.9629V17.9961H73.3522V16.6289H74.6413V14.0605L76.3893 13.0059V16.6289H78.1569V17.9961H76.3893V24.0605C76.3893 24.5618 76.4186 24.8841 76.4772 25.0273C76.5423 25.1706 76.6432 25.2845 76.78 25.3691C76.9232 25.4538 77.125 25.4961 77.3854 25.4961C77.5807 25.4961 77.8379 25.4733 78.1569 25.4277ZM86.653 25.7207C86.002 26.2741 85.3737 26.6647 84.7682 26.8926C84.1693 27.1204 83.5248 27.2344 82.8347 27.2344C81.6953 27.2344 80.8197 26.9577 80.2077 26.4043C79.5957 25.8444 79.2897 25.1315 79.2897 24.2656C79.2897 23.7578 79.4037 23.2956 79.6315 22.8789C79.8659 22.4557 80.1686 22.1172 80.5397 21.8633C80.9173 21.6094 81.3405 21.4173 81.8093 21.2871C82.1543 21.196 82.6752 21.1081 83.3718 21.0234C84.791 20.8542 85.836 20.6523 86.5065 20.418C86.513 20.1771 86.5163 20.0241 86.5163 19.959C86.5163 19.2428 86.3503 18.7383 86.0182 18.4453C85.569 18.0482 84.9017 17.8496 84.0163 17.8496C83.1895 17.8496 82.5775 17.9961 82.1804 18.2891C81.7897 18.5755 81.5 19.0866 81.3112 19.8223L79.5925 19.5879C79.7487 18.8522 80.0059 18.2598 80.364 17.8105C80.722 17.3548 81.2396 17.0065 81.9167 16.7656C82.5938 16.5182 83.3783 16.3945 84.2702 16.3945C85.1556 16.3945 85.875 16.4987 86.4284 16.707C86.9818 16.9154 87.3887 17.179 87.6491 17.498C87.9095 17.8105 88.0918 18.2077 88.196 18.6895C88.2546 18.9889 88.2839 19.5293 88.2839 20.3105V22.6543C88.2839 24.2884 88.3197 25.3236 88.3913 25.7598C88.4694 26.1895 88.6192 26.6029 88.8405 27H87.0046C86.8223 26.6354 86.7051 26.209 86.653 25.7207ZM86.5065 21.7949C85.8685 22.0553 84.9115 22.2767 83.6354 22.459C82.9128 22.5632 82.4017 22.6803 82.1022 22.8105C81.8028 22.9408 81.5716 23.1328 81.4089 23.3867C81.2461 23.6341 81.1647 23.9108 81.1647 24.2168C81.1647 24.6855 81.3405 25.0762 81.6921 25.3887C82.0502 25.7012 82.571 25.8574 83.2546 25.8574C83.9317 25.8574 84.5339 25.7109 85.0612 25.418C85.5886 25.1185 85.9759 24.7116 86.2233 24.1973C86.4121 23.8001 86.5065 23.2142 86.5065 22.4395V21.7949ZM90.9987 27V16.6289H92.5807V18.2012C92.9844 17.4655 93.3555 16.9805 93.694 16.7461C94.0391 16.5117 94.4167 16.3945 94.8268 16.3945C95.4193 16.3945 96.0215 16.5833 96.6335 16.9609L96.028 18.5918C95.5983 18.3379 95.1686 18.2109 94.739 18.2109C94.3548 18.2109 94.0098 18.3281 93.7038 18.5625C93.3978 18.7904 93.1797 19.1094 93.0495 19.5195C92.8542 20.1445 92.7565 20.8281 92.7565 21.5703V27H90.9987ZM101.516 25.4277L101.77 26.9805C101.275 27.0846 100.833 27.1367 100.442 27.1367C99.8041 27.1367 99.3093 27.0358 98.9577 26.834C98.6061 26.6322 98.3587 26.3685 98.2155 26.043C98.0723 25.7109 98.0007 25.0176 98.0007 23.9629V17.9961H96.7116V16.6289H98.0007V14.0605L99.7487 13.0059V16.6289H101.516V17.9961H99.7487V24.0605C99.7487 24.5618 99.778 24.8841 99.8366 25.0273C99.9017 25.1706 100.003 25.2845 100.139 25.3691C100.283 25.4538 100.484 25.4961 100.745 25.4961C100.94 25.4961 101.197 25.4733 101.516 25.4277ZM110.344 23.6602L112.161 23.8848C111.874 24.946 111.344 25.7695 110.569 26.3555C109.794 26.9414 108.805 27.2344 107.6 27.2344C106.083 27.2344 104.879 26.7689 103.987 25.8379C103.102 24.9004 102.659 23.5885 102.659 21.9023C102.659 20.1576 103.108 18.8034 104.007 17.8398C104.905 16.8763 106.07 16.3945 107.503 16.3945C108.889 16.3945 110.022 16.8665 110.901 17.8105C111.78 18.7546 112.219 20.0827 112.219 21.7949C112.219 21.8991 112.216 22.0553 112.21 22.2637H104.475C104.54 23.403 104.863 24.2754 105.442 24.8809C106.022 25.4863 106.744 25.7891 107.61 25.7891C108.255 25.7891 108.805 25.6198 109.26 25.2812C109.716 24.9427 110.077 24.4023 110.344 23.6602ZM104.573 20.8184H110.364C110.286 19.946 110.064 19.2917 109.7 18.8555C109.14 18.1784 108.414 17.8398 107.522 17.8398C106.715 17.8398 106.035 18.11 105.481 18.6504C104.934 19.1908 104.632 19.9134 104.573 20.8184ZM121.106 27V25.6914C120.449 26.7201 119.482 27.2344 118.206 27.2344C117.379 27.2344 116.617 27.0065 115.921 26.5508C115.23 26.0951 114.693 25.4603 114.309 24.6465C113.932 23.8262 113.743 22.8854 113.743 21.8242C113.743 20.7891 113.915 19.8516 114.26 19.0117C114.605 18.1654 115.123 17.5176 115.813 17.0684C116.503 16.6191 117.275 16.3945 118.128 16.3945C118.753 16.3945 119.309 16.528 119.798 16.7949C120.286 17.0553 120.683 17.3971 120.989 17.8203V12.6836H122.737V27H121.106ZM115.549 21.8242C115.549 23.1523 115.829 24.1452 116.389 24.8027C116.949 25.4603 117.61 25.7891 118.372 25.7891C119.14 25.7891 119.791 25.4766 120.325 24.8516C120.865 24.2201 121.135 23.2598 121.135 21.9707C121.135 20.5514 120.862 19.5098 120.315 18.8457C119.768 18.1816 119.094 17.8496 118.294 17.8496C117.512 17.8496 116.858 18.1686 116.331 18.8066C115.81 19.4447 115.549 20.4505 115.549 21.8242Z" fill="black"/>
</g>
<defs>
<filter id="filter0_d_1_20" x="22.2331" y="12.4395" width="104.504" height="22.8047" filterUnits="userSpaceOnUse" color-interpolation-filters="sRGB">
<feFlood flood-opacity="0" result="BackgroundImageFix"/>
<feColorMatrix in="SourceAlpha" type="matrix" values="0 0 0 0 0 0 0 0 0 0 0 0 0 0 0 0 0 0 127 0" result="hardAlpha"/>
<feOffset dy="4"/>
<feGaussianBlur stdDeviation="2"/>
<feComposite in2="hardAlpha" operator="out"/>
<feColorMatrix type="matrix" values="0 0 0 0 0 0 0 0 0 0 0 0 0 0 0 0 0 0 0.25 0"/>
<feBlend mode="normal" in2="BackgroundImageFix" result="effect1_dropShadow_1_20"/>
<feBlend mode="normal" in="SourceGraphic" in2="effect1_dropShadow_1_20" result="shape"/>
</filter>
<linearGradient id="paint0_linear_1_20" x1="76.3863" y1="0" x2="76.3863" y2="62.5" gradientUnits="userSpaceOnUse">
<stop stop-color="#00FF19"/>
<stop offset="1" stop-color="#00FF57" stop-opacity="0"/>
</linearGradient>
</defs>
</svg>
